<?xml version="1.0" encoding="utf-8"?>
<!-- Generator: Adobe Illustrator 23.1.1, SVG Export Plug-In . SVG Version: 6.00 Build 0)  -->
<svg version="1.1" id="Layer_1" xmlns="http://www.w3.org/2000/svg" xmlns:xlink="http://www.w3.org/1999/xlink" x="0px" y="0px"
	 viewBox="0 0 480 480" style="enable-background:new 0 0 480 480;" xml:space="preserve">
<style type="text/css">
	.st0{fill:#FFFFFF;}
</style>
<path class="st0" d="M240,0H136c-4.4,0-8,3.6-8,8v56H8c-4.4,0-8,3.6-8,8v400c0,4.4,3.6,8,8,8h232c4.4,0,8-3.6,8-8V8
	C248,3.6,244.4,0,240,0z M232,416h-88v-16h88V416z M16,120h112v240H16V120z M232,88h-88V64h88V88z M16,376h112v24H16V376z M144,384
	V104h88v280H144z M232,16v32h-88V16H232z M128,80v24H16V80H128z M16,416h112v48H16V416z M144,464v-32h88v32H144z"/>
<path class="st0" d="M479.7,438l-96-368c-0.5-2.1-1.9-3.8-3.7-4.9c-1.8-1.1-4-1.4-6.1-0.8l-120,32c-4.2,1.1-6.8,5.5-5.7,9.7l96,368
	c0.5,2.1,1.9,3.8,3.7,4.9c1.8,1.1,4,1.4,6.1,0.8l120-32C478.3,446.6,480.8,442.2,479.7,438z M278.5,158.5L383,130.7l3.8,14.4
	L282.3,173L278.5,158.5z M390.8,160.6l46.4,178l-104.5,27.9l-46.4-178L390.8,160.6z M441.3,354.1l8.2,31.4L345,413.3l-8.2-31.4
	L441.3,354.1z M370.3,81.8l8.7,33.4l-104.5,27.9l-8.7-33.4L370.3,81.8z M357.7,462.2l-8.7-33.4l104.5-27.9l8.7,33.4L357.7,462.2z"/>
<path class="st0" d="M104,144H40c-4.4,0-8,3.6-8,8v64c0,4.4,3.6,8,8,8h64c4.4,0,8-3.6,8-8v-64C112,147.6,108.4,144,104,144z M96,208
	H48v-48h48V208z"/>
</svg>
