<?xml version="1.0" encoding="utf-8"?>
<!-- Generator: Adobe Illustrator 23.1.1, SVG Export Plug-In . SVG Version: 6.00 Build 0)  -->
<svg version="1.1" id="Layer_1" xmlns="http://www.w3.org/2000/svg" xmlns:xlink="http://www.w3.org/1999/xlink" x="0px" y="0px"
	 viewBox="0 0 493.5 493.5" style="enable-background:new 0 0 493.5 493.5;" xml:space="preserve">
<style type="text/css">
	.st0{fill:#FFFFFF;}
</style>
<g>
	<g>
		<path class="st0" d="M11.6,48.5v397c0,14.5,2.4,26.6,8.7,35c6.4,8.6,14.5,13,25.3,13h0c10,0,21.3-4,32.6-11.7l274.3-188.7
			c17.6-12.2,27.4-28.5,27.4-46.1c0-17.6-9.6-33.9-27.3-46.1L78.5,12.1C67.3,4.4,56.4,0.2,46.4,0.2C24.3,0.2,11.5,18.7,11.6,48.5z"
			/>
	</g>
</g>
<g>
	<g>
		<path class="st0" d="M412.6,27v439.4c0,14.9,13.2,27,28.1,27l12.9,0.1h0.5c14.9,0,27.9-12.2,27.9-27.1V27c0-14.9-13.5-27-28.3-27
			l-13.2,0C425.5,0,412.6,12.1,412.6,27z"/>
	</g>
</g>
</svg>
