<?xml version="1.0" encoding="utf-8"?>
<!-- Generator: Adobe Illustrator 23.1.1, SVG Export Plug-In . SVG Version: 6.00 Build 0)  -->
<svg version="1.1" id="Capa_1" xmlns="http://www.w3.org/2000/svg" xmlns:xlink="http://www.w3.org/1999/xlink" x="0px" y="0px"
	 viewBox="0 0 512 512" style="enable-background:new 0 0 512 512;" xml:space="preserve">
<style type="text/css">
	.st0{fill:#FFFFFF;}
</style>
<g>
	<g>
		<path class="st0" d="M503.4,228.9l-43.3-39.4V58.8c0-8.3-6.7-15.1-15.1-15.1H341c-8.3,0-15.1,6.7-15.1,15.1v8.4l-52.2-47.6
			c-10.1-9.2-25.3-9.2-35.4,0L8.6,228.9c-8.1,7.4-10.7,18.7-6.8,28.9c3.9,10.2,13.6,16.8,24.5,16.8H63v209.7
			c0,8.3,6.7,15.1,15.1,15.1h125.9c8.3,0,15.1-6.7,15.1-15.1V356.9h74v127.3c0,8.3,6.7,15.1,15.1,15.1H434c8.3,0,15.1-6.7,15.1-15.1
			V274.5h36.7c10.9,0,20.5-6.6,24.5-16.8C514.1,247.6,511.5,236.2,503.4,228.9z M434,244.4c-8.3,0-15.1,6.7-15.1,15.1v209.7h-95.8
			V341.9c0-8.3-6.7-15.1-15.1-15.1H203.9c-8.3,0-15.1,6.7-15.1,15.1v127.3H93.1V259.5c0-8.3-6.7-15.1-15.1-15.1H36.2L256,44.2
			l74.8,68.2c4.4,4,10.8,5.1,16.2,2.6c5.5-2.4,9-7.8,9-13.8V73.8h74v122.3c0,4.2,1.8,8.3,4.9,11.1l40.8,37.2L434,244.4L434,244.4z"
			/>
	</g>
</g>
</svg>
