<?xml version="1.0" encoding="utf-8"?>
<!-- Generator: Adobe Illustrator 23.1.1, SVG Export Plug-In . SVG Version: 6.00 Build 0)  -->
<svg version="1.1" id="Capa_1" xmlns="http://www.w3.org/2000/svg" xmlns:xlink="http://www.w3.org/1999/xlink" x="0px" y="0px"
	 viewBox="0 0 512 512" style="enable-background:new 0 0 512 512;" xml:space="preserve">
<style type="text/css">
	.st0{fill:#FCFCFC;}
	.st1{fill:#FFFFFF;}
</style>
<path class="st0" d="M176,381.2c-2.8,0-5.5-0.7-8-2.1c-5-2.9-8-8.1-8-13.9V144c0-5.7,3-11,8-13.8c5-2.9,11-2.9,16,0l192,110.5
	c5,2.8,8,8.1,8,13.9s-3,11-8,13.9L184,379C181.5,380.5,178.7,381.2,176,381.2z M192,171.7v165.8l143.9-83
	C335.9,254.5,192,171.7,192,171.7L192,171.7z"/>
<path class="st1" d="M256,512C114.8,512,0,397.2,0,256S114.8,0,256,0s256,114.8,256,256S397.2,512,256,512z M256,32
	C132.5,32,32,132.5,32,256s100.5,224,224,224s224-100.5,224-224S379.5,32,256,32z"/>
</svg>
