<?xml version="1.0" encoding="utf-8"?>
<!-- Generator: Adobe Illustrator 23.1.1, SVG Export Plug-In . SVG Version: 6.00 Build 0)  -->
<svg version="1.1" id="Layer_1" xmlns="http://www.w3.org/2000/svg" xmlns:xlink="http://www.w3.org/1999/xlink" x="0px" y="0px"
	 viewBox="0 0 493.5 493.5" style="enable-background:new 0 0 493.5 493.5;" xml:space="preserve">
<style type="text/css">
	.st0{fill:#FFFFFF;}
</style>
<g>
	<g>
		<path class="st0" d="M447.1,0.2c-10.1,0-20.9,4.1-32.1,11.9L140.9,201c-17.6,12.2-27.3,28.5-27.3,46.1c0,17.6,9.8,33.9,27.4,46.1
			l274.3,188.7c11.3,7.8,22.6,11.7,32.6,11.7h0c10.8,0,18.9-4.4,25.3-13c6.3-8.5,8.7-20.5,8.7-35v-397C482,18.7,469.2,0.2,447.1,0.2
			z"/>
	</g>
</g>
<g>
	<g>
		<path class="st0" d="M53.1,0L39.9,0C25,0,11.6,12.1,11.6,27v439.4c0,14.9,13,27.1,27.9,27.1h0.5l12.9-0.1
			c14.9,0,28.1-12.2,28.1-27V27C81,12.1,68,0,53.1,0z"/>
	</g>
</g>
</svg>
