<?xml version="1.0" encoding="utf-8"?>
<!-- Generator: Adobe Illustrator 23.1.1, SVG Export Plug-In . SVG Version: 6.00 Build 0)  -->
<svg version="1.1" id="Capa_1" xmlns="http://www.w3.org/2000/svg" xmlns:xlink="http://www.w3.org/1999/xlink" x="0px" y="0px"
	 viewBox="0 0 512 512" style="enable-background:new 0 0 512 512;" xml:space="preserve">
<style type="text/css">
	.st0{fill:#FFFFFF;}
</style>
<g>
	<g>
		<path class="st0" d="M366.6,110.6c-10.1,0-18.3,8.2-18.3,18.3s8.2,18.3,18.3,18.3c60,0,108.8,48.8,108.8,108.8
			c0,60-48.8,108.8-108.8,108.8H232.2c-10.1,0-18.3,8.2-18.3,18.3s8.2,18.3,18.3,18.3h134.4c80.2,0,145.4-65.2,145.4-145.4
			C512,175.8,446.8,110.6,366.6,110.6z"/>
	</g>
</g>
<g>
	<g>
		<path class="st0" d="M256.3,383l70.4-82.1c6.6-7.7,5.7-19.3-2-25.8c-7.7-6.6-19.3-5.7-25.8,2l-80.7,94.1c-5.9,6.9-5.9,17,0,23.9
			l80.6,93.5c3.6,4.2,8.7,6.4,13.9,6.4c4.2,0,8.5-1.5,12-4.5c7.7-6.6,8.5-18.2,1.9-25.9L256.3,383z"/>
	</g>
</g>
<g>
	<g>
		<path class="st0" d="M279.8,110.6H145.4C65.2,110.6,0,175.8,0,256c0,80.2,65.2,145.4,145.4,145.4c10.1,0,18.3-8.2,18.3-18.3
			c0-10.1-8.2-18.3-18.3-18.3c-60,0-108.8-48.8-108.8-108.8c0-60,48.8-108.8,108.8-108.8h134.4c10.1,0,18.3-8.2,18.3-18.3
			S290,110.6,279.8,110.6z"/>
	</g>
</g>
<g>
	<g>
		<path class="st0" d="M293.7,116.9l-80.6-93.5c-6.6-7.7-18.2-8.5-25.9-1.9c-7.7,6.6-8.5,18.2-1.9,25.9l70.3,81.5l-70.4,82.1
			c-6.6,7.7-5.7,19.3,2,25.8c3.5,3,7.7,4.4,11.9,4.4c5.2,0,10.3-2.2,13.9-6.4l80.6-94.1C299.6,134,299.6,123.8,293.7,116.9z"/>
	</g>
</g>
</svg>
