<?xml version="1.0" encoding="utf-8"?>
<!-- Generator: Adobe Illustrator 23.1.1, SVG Export Plug-In . SVG Version: 6.00 Build 0)  -->
<svg version="1.1" id="Capa_1" xmlns="http://www.w3.org/2000/svg" xmlns:xlink="http://www.w3.org/1999/xlink" x="0px" y="0px"
	 viewBox="0 0 512 512" style="enable-background:new 0 0 512 512;" xml:space="preserve">
<style type="text/css">
	.st0{fill:#FFFFFF;}
</style>
<g>
	<g>
		<path class="st0" d="M506.2,371.7l-96-80c-4.8-4-11.4-4.8-17-2.2c-5.6,2.7-9.2,8.3-9.2,14.5v48h-26.8c-22.2,0-42.5-11.3-54.3-30.1
			L199.3,156.1C175.8,118.5,135.2,96,90.8,96H0v64h90.8c22.2,0,42.5,11.3,54.3,30.1l103.6,165.8c23.6,37.7,64.1,60.2,108.5,60.2H384
			v48c0,6.2,3.6,11.8,9.2,14.5c2.1,1,4.5,1.5,6.8,1.5c3.7,0,7.3-1.2,10.2-3.7l96-80c3.7-3,5.8-7.6,5.8-12.3S509.9,374.7,506.2,371.7
			z"/>
	</g>
</g>
<g>
	<g>
		<path class="st0" d="M506.2,115.7l-96-80c-4.8-4-11.4-4.8-17-2.2c-5.6,2.6-9.2,8.3-9.2,14.5v48h-26.8c-44.4,0-85,22.5-108.5,60.2
			l-5.8,9.3l37.7,60.4l22.3-35.7c11.8-18.8,32.1-30.1,54.3-30.1H384v48c0,6.2,3.6,11.9,9.2,14.5c2.1,1,4.5,1.5,6.8,1.5
			c3.7,0,7.3-1.3,10.2-3.7l96-80c3.7-3,5.8-7.6,5.8-12.3C512,123.3,509.9,118.7,506.2,115.7z"/>
	</g>
</g>
<g>
	<g>
		<path class="st0" d="M167.4,286.2l-22.3,35.7C133.3,340.7,113,352,90.8,352H0v64h90.8c44.4,0,85-22.5,108.5-60.2l5.8-9.3
			L167.4,286.2z"/>
	</g>
</g>
</svg>
